<?xml version="1.0" standalone="no"?>
<!DOCTYPE svg PUBLIC "-//W3C//DTD SVG 20010904//EN"
 "http://www.w3.org/TR/2001/REC-SVG-20010904/DTD/svg10.dtd">
<svg version="1.0" xmlns="http://www.w3.org/2000/svg"
 width="300.000000pt" height="300.000000pt" viewBox="0 0 300.000000 300.000000"
 preserveAspectRatio="xMidYMid meet">
<metadata>
Created by potrace 1.10, written by Peter Selinger 2001-2011
</metadata>
<g transform="translate(0.000000,300.000000) scale(0.100000,-0.100000)"
fill="#000000" stroke="none">
<path d="M287 2712 c-16 -17 -17 -116 -17 -1214 l0 -1196 24 -16 c22 -14 141
-16 1209 -16 652 0 1192 3 1201 6 9 3 13 10 10 15 -3 5 0 9 5 9 8 0 11 357 11
1202 0 1128 -1 1202 -18 1214 -14 11 -240 13 -1213 14 -1146 0 -1197 -1 -1212
-18z m2413 -1212 l0 -1200 -1200 0 -1200 0 0 1200 0 1200 1200 0 1200 0 0
-1200z"/>
<path d="M315 2678 c-3 -7 -4 -542 -3 -1188 l3 -1175 1185 0 1185 0 0 1185 0
1185 -1183 3 c-941 2 -1184 0 -1187 -10z m2335 -37 c16 -30 14 -2273 -2 -2289
-16 -16 -2259 -18 -2289 -2 -19 10 -19 34 -19 1155 0 905 3 1144 13 1148 6 3
524 6 1149 6 1115 1 1138 1 1148 -18z"/>
<path d="M1465 2268 c-28 -15 -65 -55 -58 -62 4 -3 1 -6 -5 -6 -8 0 -9 -7 -3
-22 5 -14 4 -33 -2 -46 -10 -21 -16 -23 -48 -18 -31 5 -43 1 -67 -19 -46 -38
-59 -79 -39 -120 22 -46 57 -67 112 -68 l46 -1 -2 -163 c-2 -150 -8 -189 -23
-164 -4 5 -2 12 4 16 5 3 10 11 10 16 0 6 -5 7 -11 3 -7 -4 -9 0 -5 12 13 43
16 85 6 79 -6 -4 -10 8 -10 30 0 26 4 34 13 30 6 -4 4 0 -5 8 -10 8 -16 16
-13 18 2 3 -8 6 -22 7 -15 1 -32 -6 -42 -17 -40 -48 -47 -56 -46 -61 0 -3 -9
-26 -20 -50 -22 -50 -39 -67 -107 -111 -27 -17 -48 -37 -48 -45 0 -9 -4 -12
-10 -9 -6 3 -7 -1 -4 -10 4 -8 2 -21 -4 -28 -5 -6 -12 -25 -16 -42 -4 -16 -18
-52 -30 -80 -38 -83 -39 -108 -6 -140 15 -15 30 -25 32 -24 1 2 14 -4 28 -14
20 -14 21 -17 7 -18 -20 -2 -27 -3 -49 -13 -9 -4 -25 -3 -35 2 -10 5 -74 8
-142 7 -114 -2 -125 -4 -140 -24 -21 -27 -22 -151 -2 -175 17 -20 49 -21 72 0
17 15 20 15 47 -5 16 -11 32 -18 35 -14 4 3 62 5 131 4 100 -1 126 2 136 14
12 14 16 13 35 -5 19 -18 26 -19 49 -9 14 7 27 16 27 21 1 4 3 13 4 18 1 6 3
30 4 54 0 25 7 51 14 58 38 40 -19 77 -95 61 -27 -5 -50 -8 -52 -6 -2 2 8 17
23 33 14 15 36 42 49 59 13 17 36 34 50 37 15 3 37 10 49 16 11 6 27 7 34 3 7
-5 10 -4 5 3 -3 6 2 13 13 17 16 5 61 36 107 74 35 29 56 33 89 16 19 -8 41
-25 50 -38 8 -12 15 -17 15 -12 0 6 4 5 8 -1 4 -6 24 -20 44 -31 21 -11 35
-23 32 -26 -3 -3 17 -8 45 -12 29 -4 52 -13 55 -21 3 -9 10 -12 16 -9 5 3 10
1 10 -6 0 -6 8 -18 18 -26 10 -9 11 -12 2 -7 -8 3 -1 -8 16 -25 l30 -32 40 17
c21 9 54 27 72 41 28 21 33 30 29 57 -2 18 -11 44 -20 57 -8 13 -30 68 -47
122 -17 53 -36 95 -41 92 -5 -4 -9 -2 -9 3 0 6 -15 19 -32 31 -18 11 -42 26
-53 33 -20 13 -37 33 -35 43 1 3 -16 37 -36 75 -30 54 -44 71 -66 75 -38 9
-48 0 -46 -44 0 -21 -2 -43 -6 -49 -18 -30 -24 -4 -23 96 l2 107 47 0 c38 0
52 5 76 28 27 26 63 115 41 101 -5 -3 -9 1 -9 8 0 8 -15 29 -34 47 -30 29 -39
33 -70 27 -29 -6 -37 -3 -46 13 -6 12 -8 32 -4 46 5 19 -1 33 -30 63 -38 40
-75 50 -111 30z m67 -26 c7 -11 23 -24 36 -31 18 -10 20 -15 12 -31 -5 -10
-10 -37 -10 -59 l0 -41 41 0 c22 0 49 5 59 10 16 8 21 6 31 -12 7 -13 20 -29
31 -36 23 -17 23 -37 -1 -61 -11 -11 -25 -29 -31 -40 -9 -17 -15 -19 -30 -11
-10 5 -37 10 -59 10 l-41 0 0 -171 c0 -94 4 -178 10 -188 7 -15 2 -24 -30 -50
-45 -36 -63 -39 -82 -13 -7 11 -24 24 -37 31 -17 9 -20 16 -12 24 7 7 11 72
11 189 l0 178 -43 0 c-24 0 -47 -4 -53 -10 -7 -7 -22 5 -47 34 -20 25 -37 47
-37 50 0 3 13 19 29 35 16 16 31 35 34 43 4 10 7 11 18 1 7 -7 32 -13 56 -13
l43 0 0 48 c0 26 -5 53 -12 60 -8 8 -5 14 13 21 13 5 32 19 41 30 22 26 43 27
60 3z m-182 -472 c0 -12 -10 -40 -21 -63 -22 -42 -22 -42 -1 -24 19 18 42 16
42 -2 0 -5 -11 -24 -24 -43 -21 -32 -22 -35 -5 -31 11 3 19 0 19 -6 0 -18 -47
-61 -67 -62 -12 -1 -10 -3 6 -8 38 -10 36 -29 -3 -45 -37 -15 -44 -33 -26 -67
15 -27 48 -24 100 11 45 30 65 35 94 24 21 -8 20 -33 -1 -41 -10 -3 -50 -30
-89 -59 -50 -39 -84 -56 -120 -63 -39 -7 -56 -17 -81 -48 -18 -21 -35 -46 -39
-55 -3 -10 -11 -18 -17 -18 -16 0 -117 68 -117 79 0 5 7 25 15 45 9 20 13 42
9 48 -4 6 -3 8 3 5 12 -7 24 20 49 107 13 46 22 62 46 75 67 36 111 79 125
121 15 43 81 140 95 140 4 0 8 -9 8 -20z m356 -28 c17 -26 39 -68 48 -94 15
-39 30 -54 87 -93 68 -45 69 -47 90 -118 12 -40 35 -99 51 -131 15 -32 27 -60
26 -61 -15 -14 -115 -75 -123 -75 -6 0 -19 16 -29 34 -28 53 -60 77 -112 87
-34 7 -68 25 -119 64 -40 30 -77 55 -83 55 -18 0 -24 20 -12 35 19 23 53 18
101 -15 69 -47 109 -38 109 24 0 15 -9 25 -30 33 -36 13 -41 43 -7 43 20 0 19
2 -8 15 -49 26 -76 73 -35 62 11 -3 20 0 20 5 0 6 6 5 15 -2 29 -24 16 15 -15
45 -16 16 -30 24 -30 18 0 -6 7 -16 15 -23 17 -14 20 -30 6 -30 -5 0 -16 15
-24 33 -20 40 -6 58 24 31 l22 -19 -18 34 c-10 19 -21 47 -26 63 -13 46 22 35
57 -20z m-51 -212 c3 -23 19 -50 35 -55 24 -7 32 -31 16 -44 -9 -8 -28 -2 -70
19 -31 17 -64 30 -72 30 -21 0 -18 8 16 42 17 16 30 39 30 51 1 20 2 20 23 -8
12 -16 22 -32 22 -35z m-255 24 c0 -15 62 -70 89 -79 12 -3 21 -14 21 -23 -1
-15 -2 -15 -15 2 -16 21 -85 33 -85 16 0 -6 -4 -9 -9 -5 -5 3 -13 0 -16 -6 -4
-5 -13 -8 -21 -5 -8 3 -13 0 -11 -6 3 -18 -50 -35 -65 -20 -8 8 -3 18 20 39
18 15 32 36 32 45 0 28 22 57 42 55 10 -1 18 -7 18 -13z m-597 -441 c-29 -4
-33 -8 -33 -34 0 -22 5 -29 20 -29 11 0 20 -4 20 -10 0 -5 -11 -10 -25 -10
-22 0 -24 -4 -22 -37 1 -29 -2 -38 -15 -41 -16 -3 -18 6 -18 82 l0 86 53 -2
c35 -1 42 -2 20 -5z m71 -78 c-1 -66 -4 -81 -18 -83 -14 -3 -16 8 -16 83 0 76
2 86 17 83 15 -3 17 -15 17 -83z m114 69 c27 -19 28 -36 2 -59 -19 -17 -19
-18 5 -50 14 -17 22 -35 18 -38 -15 -16 -34 -5 -50 28 -21 44 -31 44 -35 3 -2
-21 -8 -33 -18 -33 -12 0 -15 15 -16 75 0 41 1 78 3 83 7 13 68 7 91 -9z m129
0 c2 -7 -8 -9 -27 -6 -42 6 -40 -18 5 -52 19 -15 35 -36 35 -46 0 -35 -78 -68
-95 -40 -4 6 7 10 24 10 41 0 42 29 1 53 -32 20 -41 62 -18 85 15 15 70 12 75
-4z m143 6 c0 -5 -12 -10 -26 -10 -25 0 -25 -1 -23 -72 2 -61 0 -74 -14 -76
-15 -3 -17 7 -17 72 0 75 0 76 -26 76 -14 0 -23 4 -19 10 3 6 33 10 66 10 33
0 59 -4 59 -10z"/>
<path d="M1486 2205 c-5 -14 15 -20 52 -16 15 2 16 -11 0 -27 -9 -9 -9 -12 0
-12 16 0 15 -35 -3 -85 -9 -26 -10 -35 -2 -25 15 19 107 26 107 9 0 -10 3 -10
12 -1 21 21 25 14 25 -38 0 -48 -8 -62 -23 -39 -3 6 -1 16 5 22 6 6 11 15 11
21 0 5 -6 2 -13 -9 -18 -24 -39 -11 -31 21 4 14 2 24 -5 24 -6 0 -11 -7 -11
-15 0 -8 -5 -15 -11 -15 -5 0 -7 5 -4 10 3 6 -2 10 -13 10 -15 0 -18 -6 -14
-30 2 -17 10 -30 19 -30 8 0 11 5 8 10 -3 6 -1 10 4 10 6 0 11 -7 11 -15 0
-10 6 -12 18 -8 15 6 15 5 3 -10 -12 -15 -10 -17 22 -17 22 0 37 6 41 15 3 8
0 15 -7 15 -7 0 -3 8 8 16 20 15 20 15 1 30 -11 8 -15 14 -8 14 6 0 9 7 6 15
-5 11 -23 15 -71 15 l-64 0 2 61 c2 49 -1 63 -14 71 -12 6 -17 5 -17 -4 0 -8
-5 -6 -11 5 -12 21 -25 22 -33 2z"/>
<path d="M1444 2178 c3 -13 6 -27 6 -31 0 -5 5 -5 12 -1 8 5 9 2 5 -9 -4 -11
-1 -17 8 -17 8 0 15 -4 15 -10 0 -5 -4 -10 -10 -10 -5 0 -10 -6 -10 -12 0 -8
13 -13 30 -13 17 0 30 5 30 13 0 6 -4 12 -10 12 -5 0 -10 5 -10 10 0 6 7 10
15 10 8 0 15 5 15 10 0 6 -12 9 -27 8 -20 -2 -28 2 -28 12 0 9 8 14 19 13 13
-1 15 2 7 10 -7 7 -15 6 -26 -3 -12 -10 -19 -10 -28 -1 -9 9 -9 14 3 21 13 8
12 10 -4 10 -14 0 -17 -5 -12 -22z"/>
<path d="M1447 2086 c-6 -14 -17 -17 -67 -15 -52 2 -63 0 -76 -19 -14 -20 -14
-21 3 -16 16 5 15 3 -2 -11 -17 -13 -18 -17 -5 -25 8 -5 15 -15 16 -22 0 -7 2
-18 2 -24 1 -6 15 -9 32 -6 25 4 28 7 19 18 -9 11 -15 11 -25 3 -17 -14 -16
-16 -19 44 -3 35 0 47 11 47 8 0 14 -5 14 -11 0 -8 4 -8 14 0 9 8 28 10 50 6
37 -7 54 7 44 37 -3 8 -7 6 -11 -6z"/>
<path d="M1379 2045 c-5 -29 0 -70 9 -73 7 -2 10 2 6 12 -3 9 -1 16 5 16 6 0
11 -4 11 -10 0 -5 6 -10 13 -10 8 0 14 12 14 30 0 18 -6 30 -14 30 -7 0 -13
-4 -13 -10 0 -5 -5 -10 -11 -10 -6 0 -9 7 -5 15 3 8 1 15 -4 15 -6 0 -10 -2
-11 -5z"/>
<path d="M1422 1969 c-27 -10 -29 -19 -4 -12 12 3 22 -3 28 -18 10 -22 11 -22
16 -3 7 27 -13 43 -40 33z"/>
<path d="M1547 1963 c-3 -5 -3 -44 -1 -87 2 -43 -1 -87 -6 -97 -7 -11 -7 -20
0 -24 13 -8 13 -52 0 -60 -6 -4 -6 -15 0 -30 11 -30 10 -95 -2 -95 -4 0 -8 -4
-8 -9 0 -5 8 -7 18 -5 15 5 17 23 17 202 0 186 1 197 19 194 11 -2 15 1 11 7
-7 13 -42 15 -48 4z"/>
<path d="M1472 1936 c-3 -6 0 -12 6 -14 7 -2 12 -8 12 -14 0 -6 -7 -7 -16 -4
-9 4 -14 1 -12 -5 4 -13 78 -19 78 -6 0 4 -7 7 -15 7 -8 0 -15 5 -15 10 0 6 5
10 10 10 6 0 10 6 10 13 0 14 -49 17 -58 3z"/>
<path d="M1450 1862 c0 -40 10 -52 31 -39 15 9 23 9 39 -1 17 -10 20 -10 20 2
0 11 -11 14 -40 12 -37 -3 -55 7 -29 16 7 2 5 9 -5 17 -14 12 -16 11 -16 -7z"/>
<path d="M1486 1804 c-10 -26 -7 -34 13 -34 23 0 40 22 23 28 -7 2 -10 8 -6
13 3 5 -1 9 -9 9 -8 0 -18 -7 -21 -16z"/>
<path d="M1469 1740 c-1 -8 0 -23 1 -34 1 -11 -3 -15 -9 -12 -7 5 -11 -3 -10
-21 0 -26 1 -26 22 15 16 33 18 45 9 54 -9 9 -12 9 -13 -2z"/>
<path d="M1508 1720 c-9 -17 -13 -30 -8 -30 6 0 10 5 10 11 0 5 5 7 10 4 13
-8 25 24 14 35 -5 5 -16 -3 -26 -20z"/>
<path d="M1502 1672 c-17 -3 -21 -8 -17 -23 4 -13 2 -19 -9 -19 -10 0 -13 -6
-10 -15 4 -8 14 -15 23 -14 9 0 11 3 4 6 -8 3 -3 12 14 27 30 26 28 42 -5 38z"/>
<path d="M1438 1591 c-3 -22 0 -31 14 -34 10 -3 18 0 18 6 0 7 9 1 19 -13 11
-13 17 -28 15 -32 -9 -15 3 -8 17 9 12 14 12 15 0 9 -10 -6 -12 -4 -7 10 3 11
1 26 -5 34 -9 13 -10 12 -5 -2 6 -19 -9 -25 -19 -8 -3 5 -13 6 -21 3 -13 -5
-15 -1 -10 15 4 11 3 23 -2 26 -6 3 -12 -7 -14 -23z"/>
<path d="M1307 1733 c-14 -21 -40 -76 -57 -123 -17 -47 -42 -98 -55 -115 -32
-39 -32 -16 0 31 36 53 20 57 -24 7 -20 -24 -44 -43 -52 -43 -11 0 -22 -19
-34 -62 -9 -35 -30 -89 -45 -120 l-28 -57 50 -33 51 -32 16 24 c40 61 64 80
119 96 34 10 82 35 118 63 34 25 70 51 80 58 18 11 17 12 -6 12 -14 1 -43 -11
-65 -26 -50 -34 -110 -47 -115 -24 -15 81 11 222 64 344 9 20 15 37 12 37 -2
0 -15 -17 -29 -37z m-77 -278 c0 -49 25 -95 51 -95 37 0 1 -29 -44 -37 -27 -4
-52 -17 -73 -39 -18 -17 -31 -34 -28 -36 2 -3 -7 -10 -20 -16 -18 -8 -28 -7
-45 4 -26 19 -27 39 -1 86 11 21 17 45 13 54 -5 13 -3 15 7 9 8 -5 11 -4 7 2
-8 13 33 99 41 87 9 -13 50 -10 65 5 19 19 27 12 27 -24z"/>
<path d="M1316 1650 c-24 -29 -33 -50 -22 -50 9 0 59 71 54 76 -3 3 -17 -9
-32 -26z"/>
<path d="M1298 1583 c-18 -5 -26 -33 -9 -33 5 0 19 9 32 20 24 19 16 24 -23
13z"/>
<path d="M1670 1757 c0 -4 11 -33 24 -65 13 -31 33 -100 45 -153 11 -53 24
-104 27 -114 5 -12 4 -16 -4 -11 -6 3 -16 -3 -22 -14 -16 -29 -60 -25 -108 10
-24 17 -54 30 -69 29 -26 0 -26 -1 -9 -12 10 -7 47 -33 82 -60 42 -31 80 -51
114 -58 55 -12 85 -35 116 -87 20 -35 23 -35 83 2 l40 26 -28 62 c-16 35 -36
90 -46 123 -18 64 -30 85 -49 85 -6 0 -2 -7 8 -15 12 -9 14 -15 7 -15 -7 0
-32 21 -56 48 -49 52 -59 46 -20 -12 30 -44 32 -55 6 -32 -19 18 -38 55 -71
147 -18 48 -70 135 -70 116z m170 -290 l44 -1 33 -96 c36 -102 46 -136 36
-127 -3 4 -15 1 -27 -5 -27 -15 -46 -19 -46 -8 0 4 -13 24 -30 45 -16 21 -30
34 -30 30 0 -4 -6 -3 -12 2 -7 6 -29 13 -49 17 -21 4 -43 14 -50 23 -8 10 -9
14 -2 10 6 -4 25 6 43 24 25 26 30 37 25 60 -7 32 3 59 15 39 4 -6 27 -12 50
-13z"/>
<path d="M1669 1576 c16 -19 51 -27 51 -11 0 7 -10 15 -22 19 -35 9 -41 7 -29
-8z"/>
<path d="M930 1070 c0 -38 2 -40 20 -30 11 6 20 19 20 30 0 11 -9 24 -20 30
-18 10 -20 8 -20 -30z"/>
<path d="M1397 1140 c-49 -4 -72 -10 -81 -22 -7 -10 -17 -14 -21 -10 -5 4 -5
2 -1 -5 3 -6 2 -14 -4 -18 -5 -3 -10 -26 -10 -50 0 -36 6 -50 30 -75 27 -28
35 -30 102 -31 130 -1 173 2 189 17 14 13 20 12 44 0 16 -8 33 -12 39 -8 17
11 29 10 52 -4 17 -10 24 -9 44 6 21 16 26 16 45 4 22 -14 48 -16 160 -12 33
1 70 -2 83 -6 14 -5 22 -3 22 4 0 6 4 9 9 6 5 -4 11 0 14 6 4 10 7 11 18 1 33
-32 89 2 89 53 0 35 18 94 29 94 4 0 8 7 8 15 0 8 -4 12 -8 9 -4 -2 -9 1 -11
7 -4 11 -91 23 -140 18 -7 0 -34 2 -60 6 -52 8 -111 -12 -122 -41 -5 -13 -11
-10 -31 14 -25 29 -27 30 -103 27 -83 -4 -100 -6 -119 -18 -7 -4 -23 -3 -35 4
-24 13 -123 17 -231 9z m38 -30 c4 -6 -8 -10 -28 -10 -43 0 -60 -19 -60 -69 0
-55 9 -64 54 -58 39 5 53 -5 23 -17 -54 -21 -114 20 -114 79 0 34 14 56 45 73
25 14 72 15 80 2z m115 0 c-8 -5 -25 -7 -37 -3 -21 5 -23 2 -23 -30 0 -30 3
-34 19 -30 10 3 22 0 25 -6 5 -7 -3 -11 -18 -11 -22 0 -26 -4 -26 -30 0 -28 2
-30 40 -30 22 0 39 3 39 8 -1 4 -1 37 0 75 1 82 13 86 65 20 l36 -46 0 46 c0
26 5 47 10 47 12 0 14 -157 2 -164 -5 -3 -26 22 -48 54 -21 33 -42 60 -45 60
-3 0 -3 -26 -1 -59 l4 -58 -70 -2 -71 -2 1 78 c0 43 3 81 5 86 2 4 28 7 56 7
37 0 48 -3 37 -10z m270 1 c0 -5 -10 -11 -22 -13 -21 -3 -23 -8 -23 -73 0 -58
-3 -70 -17 -73 -16 -3 -18 6 -18 72 0 69 -2 76 -20 76 -11 0 -20 5 -20 10 0 6
27 10 60 10 33 0 60 -4 60 -9z m42 -41 c-2 -25 1 -58 7 -73 9 -23 16 -28 39
-25 26 3 27 5 30 76 3 87 22 88 22 1 0 -46 -4 -63 -20 -79 -24 -24 -57 -26
-88 -4 -19 13 -22 24 -22 85 0 62 2 70 18 67 14 -3 16 -12 14 -48z m206 34
c27 -19 28 -36 2 -59 -19 -17 -19 -18 5 -50 14 -17 22 -35 18 -38 -15 -16 -34
-5 -50 28 -21 45 -33 44 -33 -1 0 -28 -3 -35 -17 -32 -15 3 -18 16 -21 86 l-3
82 38 0 c21 0 49 -7 61 -16z m91 -18 c15 -31 16 -31 47 21 7 10 15 15 19 11 4
-4 -1 -20 -11 -35 -11 -15 -21 -50 -24 -78 -4 -37 -9 -51 -22 -53 -15 -3 -18
4 -18 39 0 27 -9 58 -26 86 l-26 45 24 -4 c13 -2 28 -15 37 -32z m-744 -51 c0
-32 -19 -45 -29 -19 -9 22 3 56 17 51 7 -2 12 -16 12 -32z"/>
<path d="M2010 1070 c0 -38 2 -40 20 -30 22 12 26 40 8 58 -21 21 -28 13 -28
-28z"/>
<path d="M793 888 c-32 -15 -48 -60 -32 -90 7 -12 12 -27 11 -31 -1 -5 2 -6 8
-2 5 3 10 2 10 -3 0 -14 56 -8 75 8 9 7 22 9 32 5 10 -5 21 -7 26 -7 4 1 7 -2
7 -7 0 -6 10 -8 23 -5 12 3 28 6 35 8 8 1 18 9 23 17 7 11 9 11 9 1 0 -7 5
-10 10 -7 6 3 10 1 10 -4 0 -14 63 -14 77 0 7 7 17 8 29 1 14 -7 28 -5 51 8
35 19 34 30 -4 30 -17 0 -23 -6 -23 -22 0 -14 -4 -18 -9 -12 -6 5 -7 28 -4 52
6 41 7 43 37 40 25 -2 31 -8 32 -28 2 -53 30 -87 66 -81 53 7 79 8 82 2 9 -13
49 -5 60 12 8 12 5 22 -12 40 -12 13 -22 30 -22 39 0 21 -26 42 -35 28 -3 -6
-10 -8 -15 -5 -5 3 -11 1 -15 -5 -3 -5 -17 -10 -31 -10 -31 0 -32 -27 -1 -33
l22 -4 -22 -2 c-33 -2 -29 -29 5 -34 22 -3 20 -4 -10 -6 l-38 -1 0 45 c0 45 0
45 36 45 21 0 33 4 29 10 -9 14 -72 13 -77 -2 -3 -8 -11 -7 -27 4 -23 16 -60
13 -73 -5 -4 -7 -18 -5 -39 6 -32 15 -36 15 -65 -4 -27 -16 -33 -17 -37 -4
-10 24 -52 28 -91 10 -28 -13 -39 -15 -50 -6 -20 17 -48 20 -73 9z m73 -30
c10 -16 -3 -20 -25 -6 -18 11 -23 10 -38 -5 -14 -13 -15 -21 -7 -35 13 -21 45
-23 52 -3 3 10 0 12 -12 8 -9 -4 -16 -2 -16 3 0 6 11 10 25 10 31 0 33 -23 4
-43 -41 -30 -88 8 -70 57 13 33 70 42 87 14z m135 -10 c21 -39 -18 -82 -64
-70 -25 6 -37 41 -24 69 16 36 69 37 88 1z m109 4 c0 -12 -3 -13 -12 -4 -7 7
-18 12 -25 12 -22 0 -14 -20 12 -30 28 -11 34 -44 9 -54 -8 -3 -24 -1 -35 4
-20 11 -26 30 -9 30 6 0 10 -4 10 -10 0 -5 9 -10 20 -10 25 0 26 17 1 25 -11
3 -25 13 -32 21 -11 14 -10 18 4 29 22 16 57 8 57 -13z m298 -65 c25 -4 25 -4
-4 -6 -31 -1 -32 0 -36 45 -2 25 -1 48 2 51 3 3 6 -16 8 -40 3 -41 6 -46 30
-50z"/>
<path d="M930 845 c-25 -30 15 -70 45 -45 20 16 19 46 -1 54 -23 9 -30 8 -44
-9z"/>
<path d="M1541 887 c-13 -6 -29 -27 -37 -45 -13 -31 -12 -34 14 -60 31 -32 57
-34 96 -8 16 10 26 14 23 9 -4 -5 0 -10 7 -10 9 0 13 15 12 49 -1 27 2 52 6
54 4 3 8 -6 8 -20 0 -21 5 -26 25 -26 18 0 25 5 25 20 0 11 3 20 8 20 4 0 6
-18 4 -39 -3 -32 0 -41 17 -50 12 -7 21 -8 21 -4 0 4 4 2 9 -6 5 -8 23 -15 39
-15 17 -1 28 2 26 5 -7 12 39 18 58 8 10 -5 18 -7 18 -4 0 3 10 1 21 -6 12 -6
19 -7 15 -1 -9 15 35 22 58 9 28 -15 69 -19 76 -6 9 13 48 20 55 8 4 -5 13 -5
24 1 10 5 21 7 24 3 3 -3 16 -3 29 0 19 5 23 13 25 52 1 40 -2 46 -22 51 -13
3 -29 3 -35 -1 -6 -4 -17 -2 -25 5 -9 8 -15 8 -20 0 -3 -6 -11 -7 -17 -4 -7 5
-8 2 -3 -6 5 -8 -6 -3 -24 9 -32 23 -34 23 -74 7 -36 -14 -43 -14 -64 -1 -32
21 -58 19 -77 -7 -9 -13 -14 -17 -10 -9 4 9 3 12 -4 7 -6 -3 -14 -2 -17 4 -5
8 -11 8 -20 0 -8 -7 -21 -7 -38 -1 -18 7 -27 7 -30 -2 -3 -9 -7 -9 -19 1 -11
9 -23 10 -41 3 -18 -7 -28 -7 -33 0 -4 6 -14 5 -28 -4 -19 -13 -24 -13 -45 4
-27 22 -29 22 -60 6z m75 -39 c5 -8 2 -9 -12 -3 -42 17 -59 12 -59 -20 0 -21
5 -31 19 -33 10 -2 22 2 26 8 4 7 14 10 21 8 9 -3 5 -10 -14 -22 -25 -17 -29
-17 -53 -2 -18 13 -24 24 -22 44 5 47 69 61 94 20z m480 10 c10 -16 -3 -20
-24 -7 -17 10 -23 10 -36 0 -9 -8 -16 -19 -16 -26 0 -7 7 -18 16 -26 13 -10
19 -10 36 0 21 13 34 9 24 -7 -9 -15 -39 -20 -64 -11 -35 13 -29 79 8 91 19 6
48 -1 56 -14z m-300 -12 c-7 -30 2 -56 19 -56 15 0 25 22 25 56 0 13 5 24 10
24 18 0 11 -59 -10 -80 -31 -31 -60 -11 -60 40 0 23 5 40 11 40 7 0 9 -10 5
-24z m172 0 c2 -10 -2 -22 -9 -27 -10 -6 -10 -10 0 -23 10 -11 10 -16 2 -16
-6 0 -14 7 -17 15 -4 8 -12 15 -20 15 -8 0 -11 -6 -8 -15 4 -8 1 -15 -5 -15
-6 0 -11 19 -11 46 0 45 0 45 32 42 23 -2 34 -9 36 -22z m192 4 c0 -13 7 -20
20 -20 13 0 20 7 20 20 0 11 5 20 10 20 6 0 10 -20 10 -45 0 -25 -4 -45 -10
-45 -5 0 -10 9 -10 20 0 13 -7 20 -20 20 -15 0 -20 -7 -20 -26 0 -14 -4 -23
-10 -19 -5 3 -10 26 -10 51 0 24 5 44 10 44 6 0 10 -9 10 -20z"/>
<path d="M1920 839 c0 -24 23 -21 28 4 2 10 -3 17 -12 17 -10 0 -16 -9 -16
-21z"/>
<path d="M1170 840 c0 -15 5 -20 18 -18 9 2 17 10 17 18 0 8 -8 16 -17 18 -13
2 -18 -3 -18 -18z"/>
<path d="M1670 794 c0 -19 4 -25 15 -20 8 3 15 1 15 -3 0 -10 26 -9 36 2 4 4
0 7 -8 7 -11 0 -14 6 -11 20 4 16 0 20 -21 20 -21 0 -26 -5 -26 -26z"/>
</g>
</svg>
